<!--?xml version="1.0" encoding="utf-8"?-->
<!-- Generator: Adobe Illustrator 18.1.1, SVG Export Plug-In . SVG Version: 6.00 Build 0)  -->

<svg version="1.1" id="_x32_" xmlns="http://www.w3.org/2000/svg" xmlns:xlink="http://www.w3.org/1999/xlink" x="0px" y="0px" viewBox="0 0 512 512" style="width: 512px; height: 512px;" xml:space="preserve">
<style type="text/css">
	.st0{fill:#4B4B4B;}
</style>
<g>
	<path class="st0" d="M446.674,257.34V28.016C446.674,12.546,434.136,0,418.666,0H93.338C77.868,0,65.326,12.546,65.326,28.016
		V257.34h34.842l11.402,22.805H65.326v203.847c0,15.471,12.542,28.009,28.012,28.009h325.328c15.47,0,28.008-12.538,28.008-28.009
		V280.144h-46.24l11.402-22.805H446.674z M372.358,40.502l22.508,21.669l-5.626,58.341l-16.881,11.67l-16.874-11.67l-5.627-58.341
		L372.358,40.502z M386.166,255.12h-0.008c-8.248,12.093-19.294,19.895-31.238,23.926c-5.56,1.9-11.268,3.044-17.096,3.786v0.171
		h-1.08c-6.362,0.742-12.872,0.964-19.538,0.972c-12.486-0.008-25.718-0.72-39.593-0.876l41.586,58.927l-18.633,13.154L256,292.037
		l-44.567,63.143l-18.632-13.154l41.586-58.927c-13.874,0.156-27.11,0.868-39.597,0.876c-6.666-0.008-13.176-0.23-19.538-0.972
		h-1.076v-0.171c-5.827-0.742-11.536-1.885-17.096-3.786c-11.944-4.031-22.991-11.833-31.238-23.926l1.076,1.559l-1.08-1.559
		c-6.521-9.45-9.717-20.347-9.71-31.067c-0.026-16.829,7.884-33.524,22.745-43.998l-3.11,2.19l3.106-2.19
		c9.417-6.659,20.336-9.881,31.068-9.873c16.891-0.022,33.612,7.973,44.102,22.842L256,252.478l41.961-59.454
		c10.489-14.869,27.207-22.864,44.102-22.842c10.734-0.008,21.647,3.214,31.067,9.873c14.862,10.474,22.768,27.169,22.746,43.998
		C395.876,234.773,392.684,245.663,386.166,255.12z" style="fill: rgb(223, 86, 86);"></path>
	<path class="st0" d="M169.937,192.986c-6.225,0.008-12.427,1.826-17.913,5.694l-0.004,0.008
		c-8.585,6.064-13.061,15.529-13.088,25.366c0.004,6.236,1.827,12.524,5.672,18.106l0.004,0.008
		c5.835,8.314,11.907,12.486,19.895,15.315c3.678,1.284,7.873,2.13,12.46,2.717h56.574l-38.131-54.028
		C189.326,197.559,179.751,193.001,169.937,192.986z" style="fill: rgb(223, 86, 86);"></path>
	<path class="st0" d="M359.976,198.68c-5.486-3.868-11.692-5.686-17.913-5.694c-9.817,0.014-19.39,4.572-25.47,13.191l-38.126,54.02
		h56.57c4.591-0.587,8.786-1.433,12.46-2.717c7.987-2.828,14.06-7,19.894-15.315v0.008c3.846-5.59,5.672-11.878,5.679-18.121
		C373.041,214.217,368.565,204.752,359.976,198.68z" style="fill: rgb(223, 86, 86);"></path>
</g>
</svg>
